<?xml version="1.0" standalone="no"?>
<!DOCTYPE svg PUBLIC "-//W3C//DTD SVG 20010904//EN"
 "http://www.w3.org/TR/2001/REC-SVG-20010904/DTD/svg10.dtd">
<svg version="1.0" xmlns="http://www.w3.org/2000/svg"
 width="2048.000000pt" height="2048.000000pt" viewBox="0 0 2048.000000 2048.000000"
 preserveAspectRatio="xMidYMid meet">

<g transform="translate(0.000000,2048.000000) scale(0.100000,-0.100000)"
fill="#000000" stroke="none">
<path d="M10010 17038 c-320 -142 -594 -262 -670 -293 -36 -15 -150 -67 -255
-115 -104 -48 -255 -116 -335 -150 -80 -34 -199 -86 -265 -116 -66 -29 -216
-94 -334 -144 -118 -50 -273 -118 -345 -152 -72 -33 -178 -79 -236 -103 -58
-24 -145 -62 -195 -85 -121 -56 -458 -204 -890 -390 -99 -43 -220 -96 -270
-120 -114 -53 -445 -200 -451 -200 -3 0 -60 -25 -127 -56 -67 -31 -174 -78
-237 -104 -165 -69 -432 -185 -520 -227 -41 -19 -91 -41 -110 -48 -19 -7 -111
-47 -205 -90 -93 -42 -242 -109 -330 -147 -88 -39 -234 -104 -324 -145 -90
-40 -185 -81 -212 -89 l-49 -16 0 -83 0 -82 72 -28 c40 -15 381 -150 758 -300
777 -310 1513 -602 1673 -665 l107 -43 0 -857 0 -858 48 -22 c46 -22 583 -254
777 -335 55 -24 153 -66 219 -94 65 -28 122 -51 127 -51 5 0 9 378 9 865 0
476 3 865 8 865 8 0 277 -106 722 -283 146 -59 626 -250 1067 -426 l802 -319
458 228 c252 125 638 316 858 424 220 109 434 215 475 237 92 48 412 207 880
436 195 96 571 282 835 414 440 219 1184 587 2178 1078 213 105 386 195 383
199 -2 4 -31 19 -63 34 -197 89 -385 172 -573 253 -118 51 -251 109 -295 130
-90 41 -527 235 -710 315 -66 29 -235 103 -375 165 -140 62 -325 143 -410 180
-85 37 -159 71 -165 75 -11 8 -349 156 -430 188 -27 11 -97 41 -155 67 -244
111 -1008 448 -1270 562 -348 151 -902 394 -1030 453 -69 32 -145 66 -170 77
-25 11 -82 37 -126 57 -45 20 -85 36 -90 35 -5 0 -110 -46 -234 -101z m361
-454 c68 -31 302 -134 519 -229 976 -427 1060 -465 1060 -475 0 -8 -267 -137
-595 -288 -137 -63 -313 -143 -390 -179 -77 -36 -189 -87 -250 -115 -220 -100
-353 -162 -475 -220 -69 -33 -222 -104 -340 -158 -118 -53 -332 -153 -475
-220 -143 -67 -316 -148 -385 -180 -69 -32 -174 -81 -235 -110 -60 -29 -191
-90 -290 -135 -257 -118 -700 -323 -985 -457 -135 -64 -272 -128 -305 -142
-33 -15 -180 -84 -328 -153 -211 -98 -273 -124 -294 -118 -14 3 -106 40 -204
81 -98 40 -181 74 -184 74 -5 0 -1441 572 -1519 605 l-39 17 44 20 c44 20 544
241 879 388 96 43 357 157 580 254 223 98 515 226 650 286 135 59 304 134 375
165 286 126 551 242 1210 533 289 128 672 295 895 392 85 37 218 96 295 130
296 133 650 289 656 289 3 1 61 -24 130 -55z m2943 -1298 c116 -52 337 -149
491 -216 322 -140 352 -153 655 -288 124 -55 311 -137 415 -182 267 -115 345
-152 345 -160 0 -3 -235 -123 -522 -265 -766 -379 -1546 -765 -1928 -952 -184
-91 -546 -270 -805 -398 -258 -128 -598 -296 -755 -373 -157 -77 -442 -217
-635 -312 -281 -138 -356 -171 -380 -167 -33 5 -203 71 -815 317 -223 89 -637
254 -920 367 -569 228 -560 224 -560 232 0 9 305 160 565 281 33 15 193 92
355 170 281 136 365 176 615 295 61 29 196 94 300 145 105 51 217 105 250 120
33 15 137 65 230 110 94 45 258 124 365 175 207 99 326 156 807 389 167 80
305 146 307 146 3 0 164 77 358 171 194 94 376 182 403 194 28 13 178 85 335
159 157 75 291 136 299 136 7 0 108 -42 225 -94z"/>
<path d="M15660 13935 c-30 -7 -91 -29 -135 -48 -224 -97 -4676 -2321 -4740
-2368 -165 -121 -290 -323 -326 -526 -65 -376 46 -748 304 -1020 124 -130 249
-210 422 -269 141 -48 344 -45 499 8 74 25 1459 711 4371 2166 345 172 455
241 551 346 131 143 216 360 231 586 13 200 -51 443 -168 640 -111 187 -316
365 -509 440 -142 56 -371 76 -500 45z m-4257 -2639 c217 -82 375 -268 452
-532 123 -421 -102 -808 -459 -789 -47 2 -111 13 -147 25 -73 24 -184 87 -247
139 -85 70 -171 207 -216 341 -118 357 -24 672 242 810 65 34 98 40 207 36 77
-3 116 -10 168 -30z"/>
<path d="M3650 13559 c-4 -1061 2 -7165 7 -7169 5 -4 42 -21 83 -40 90 -40
721 -342 982 -469 102 -50 189 -91 192 -91 3 0 7 993 8 2207 l3 2208 94 -210
c52 -116 112 -248 134 -295 21 -47 70 -155 107 -240 37 -85 103 -231 145 -325
78 -172 257 -569 455 -1010 59 -132 140 -312 180 -400 39 -88 96 -214 125
-280 29 -66 132 -298 230 -515 232 -517 293 -654 345 -775 24 -55 47 -104 51
-109 4 -5 20 12 36 38 15 26 75 120 133 209 58 89 133 204 165 255 33 51 116
179 185 285 69 106 172 266 230 355 58 89 159 246 225 347 66 102 179 276 250
387 72 112 186 288 255 393 69 105 163 250 210 323 167 260 288 443 293 445 3
1 7 -1123 9 -2498 2 -1375 5 -2533 6 -2573 3 -64 6 -74 25 -81 12 -5 120 -57
240 -115 120 -58 220 -106 221 -106 2 0 111 -52 242 -116 192 -94 435 -208
511 -241 18 -7 18 7683 0 7694 -6 4 -48 22 -92 39 -78 30 -323 129 -775 314
-218 89 -289 115 -294 108 -2 -2 -72 -111 -156 -243 -158 -248 -282 -440 -500
-775 -70 -107 -175 -269 -233 -360 -112 -176 -187 -292 -312 -485 -43 -66
-130 -201 -193 -300 -147 -229 -162 -254 -379 -590 -99 -154 -195 -304 -213
-332 -18 -29 -37 -53 -41 -53 -4 0 -11 10 -15 23 -7 24 -160 388 -253 605 -33
75 -95 223 -139 327 -44 105 -118 280 -165 390 -232 546 -453 1069 -484 1145
-19 47 -43 103 -53 125 -10 22 -80 186 -155 365 -75 179 -195 460 -265 625
-70 165 -198 467 -285 670 -232 546 -198 485 -291 523 -43 17 -223 90 -399
162 -395 163 -656 270 -672 277 -10 4 -13 -9 -13 -48z"/>
<path d="M16805 10641 c-6 -5 -341 -175 -745 -379 -686 -344 -1220 -615 -1995
-1008 l-320 -163 -3 -691 c-1 -513 1 -690 9 -690 7 0 156 74 333 164 736 376
1432 729 1454 737 l22 9 0 -563 c0 -531 -1 -567 -21 -647 -48 -202 -164 -336
-379 -437 -52 -25 -210 -102 -350 -171 -338 -166 -738 -362 -985 -482 -110
-53 -298 -145 -417 -204 -120 -58 -306 -149 -415 -202 -204 -100 -455 -222
-985 -482 l-308 -151 -1 2002 c-1 2031 -2 2083 -10 2091 -3 3 -41 -1 -84 -9
-184 -33 -404 -12 -570 54 -210 84 -425 247 -531 401 -26 38 -50 70 -53 70 -5
0 -7 -6518 -2 -6543 0 -4 68 26 150 67 82 41 238 117 347 169 110 52 262 125
339 162 77 37 232 111 345 165 113 54 324 155 470 225 146 70 360 172 475 227
116 55 253 121 305 147 52 27 129 63 170 81 134 58 201 90 435 205 248 122
716 348 830 400 39 18 122 58 185 90 63 31 176 85 250 120 127 59 656 317 765
373 87 44 233 139 354 229 434 324 788 881 907 1428 55 254 53 220 54 1370 1
1753 0 1845 -8 1845 -4 0 -12 -4 -17 -9z"/>
</g>
</svg>
