<?xml version="1.0" encoding="UTF-8"?>
<svg id="Layer_1" xmlns="http://www.w3.org/2000/svg" version="1.1" viewBox="0 0 623.44 105.63">
  <!-- Generator: Adobe Illustrator 29.5.0, SVG Export Plug-In . SVG Version: 2.1.0 Build 137)  -->
  <defs>
    <style>
      .st0 {
        fill-rule: evenodd;
      }

      .st0, .st1 {
        fill: #0060d9;
      }
    </style>
  </defs>
  <path class="st1" d="M215.48.06h36.08c25.23,0,39.91,13,39.91,35.16,0,22.47-14.68,35.47-39.91,35.47h-13.45s0,34.86,0,34.86h-22.63s0-105.49,0-105.49ZM251.1,52.04c10.7,0,17.12-6.12,17.12-16.67,0-10.55-6.42-16.67-17.12-16.67h-13s0,33.33,0,33.33h13Z"/>
  <path class="st1" d="M350.75,83h-41.28s-7.34,22.63-7.34,22.63h-23.7S316.04.13,316.04.13h29.81s37.61,105.49,37.61,105.49h-25.38s-7.34-22.63-7.34-22.63ZM345.25,66.18l-14.53-44.64h-1.22s-14.52,44.64-14.52,44.64h30.27Z"/>
  <polygon class="st1" points="394.94 65.72 357.78 .13 383.16 .13 406.1 44.32 407.32 44.32 430.87 .13 454.72 .13 417.56 65.72 417.56 105.63 394.94 105.63 394.94 65.72"/>
  <polygon class="st1" points="482.11 18.78 452.6 18.78 463.22 .13 534.39 .13 534.39 18.78 504.73 18.78 504.73 105.63 482.11 105.63 482.11 18.78"/>
  <path class="st1" d="M598.82,105.63l-20.33-35.01h-.61s-13.45,0-13.45,0v35.01s-22.63,0-22.63,0V.13s36.08,0,36.08,0c25.23,0,39.91,13,39.91,35.17,0,15.6-7.03,26.6-19.88,31.8l25.53,38.53h-24.62ZM564.42,52.11h13c10.7,0,17.13-6.27,17.13-16.82,0-10.4-6.42-16.51-17.13-16.51h-13s0,33.33,0,33.33Z"/>
  <path class="st0" d="M54.86,18.65h-26.16c-4.61,0-8.1-4.16-7.29-8.68l.69-3.87C22.72,2.57,25.8,0,29.39,0h26.17c4.61,0,8.1,4.16,7.29,8.68l-.69,3.87c-.63,3.53-3.7,6.1-7.29,6.1"/>
  <path class="st0" d="M91.16,47.33h-53.91c-4.6,0-8.08-4.16-7.28-8.68l.69-3.87c.63-3.53,3.69-6.1,7.28-6.1h53.91c4.6,0,8.08,4.16,7.28,8.68l-.69,3.87c-.63,3.53-3.69,6.1-7.28,6.1"/>
  <path class="st0" d="M44.86,76.44H7.39c-4.59,0-8.06-4.13-7.28-8.65l.67-3.87c.61-3.54,3.69-6.13,7.28-6.13h37.46c4.59,0,8.07,4.13,7.28,8.65l-.67,3.87c-.61,3.54-3.69,6.13-7.28,6.13"/>
  <path class="st0" d="M39.71,105.55h-12.37c-4.6,0-8.08-4.16-7.28-8.68l.69-3.87c.63-3.53,3.7-6.1,7.28-6.1h12.37c4.6,0,8.08,4.16,7.28,8.68l-.69,3.87c-.63,3.53-3.69,6.1-7.28,6.1"/>
  <path class="st1" d="M77.06,6.17l-.68,3.87c-.8,4.52,2.69,8.67,7.28,8.67h28.67c9.11,0,16,8.23,14.4,17.19l-1.75,9.82c-1.24,6.98-7.31,12.06-14.4,12.06h-36.23c-3.59,0-6.66,2.58-7.28,6.11l-5.62,32.98c-.8,4.53,2.69,8.67,7.28,8.67h88.15c7.06,0,13.1-5.07,14.33-12.03l13.43-76.41C186.21,8.21,179.36.06,170.32.06h-85.98c-3.59,0-6.66,2.58-7.28,6.11"/>
</svg>